<?xml version="1.0" standalone="no"?>
<!DOCTYPE svg PUBLIC "-//W3C//DTD SVG 20010904//EN"
 "http://www.w3.org/TR/2001/REC-SVG-20010904/DTD/svg10.dtd">
<svg version="1.0" xmlns="http://www.w3.org/2000/svg"
 width="1024.000000pt" height="1024.000000pt" viewBox="0 0 1024.000000 1024.000000"
 preserveAspectRatio="xMidYMid meet">
<metadata>
Created by potrace 1.14, written by Peter Selinger 2001-2017
</metadata>
<g transform="translate(0.000000,1024.000000) scale(0.100000,-0.100000)"
fill="#000000" stroke="none">
<path d="M3773 8880 c0 -36 2 -50 4 -32 2 17 2 47 0 65 -2 17 -4 3 -4 -33z"/>
<path d="M3942 8858 c-1 -49 -2 -91 -2 -95 0 -5 -39 -11 -87 -14 l-88 -5 88
-2 c65 -2 89 1 93 11 3 8 3 54 1 103 l-3 89 -2 -87z"/>
<path d="M6210 8315 l0 -415 110 0 110 0 0 -95 0 -94 98 -3 97 -3 3 -125 3
-125 104 3 105 3 0 131 0 131 -99 -5 -99 -5 -7 99 -7 98 -98 0 c-80 0 -99 3
-104 16 -3 9 -6 100 -6 204 l0 188 -100 -5 -101 -6 3 212 c2 116 0 211 -4 211
-5 0 -8 -187 -8 -415z"/>
<path d="M6317 8723 l83 -4 3 -197 2 -197 3 203 2 202 -87 -2 -88 -2 82 -3z"/>
<path d="M5005 8264 c-44 -35 -84 -70 -90 -77 -6 -8 -10 -80 -10 -165 l0 -152
-88 0 -87 0 -72 -76 c-120 -126 -118 -121 -118 -246 l0 -108 -100 0 -100 0 0
-106 0 -106 -97 2 c-54 2 -235 2 -401 1 l-304 -1 4 -94 c1 -52 7 -98 11 -102
7 -7 1527 -7 1535 0 1 2 1 293 0 648 l-3 644 -80 -62z m60 -823 c-11 -5 -23
-7 -27 -4 -5 2 -8 0 -8 -6 0 -5 -15 -11 -32 -13 -29 -3 -33 -7 -34 -33 -1 -16
2 -34 6 -40 8 -12 6 -62 -3 -72 -4 -3 -7 3 -7 15 0 12 -6 22 -12 22 -9 0 -9 3
-3 8 6 4 10 13 9 20 -1 6 -2 31 -3 55 -2 70 -21 22 -21 -55 0 -39 -4 -68 -10
-68 -6 0 -10 37 -10 90 l0 90 88 -1 c54 0 80 -3 67 -8z"/>
<path d="M6612 8085 c0 -16 2 -22 5 -12 2 9 2 23 0 30 -3 6 -5 -1 -5 -18z"/>
<path d="M3738 7995 l-3 -100 -97 -3 -98 -3 0 -84 c0 -47 0 -88 0 -92 0 -5 44
-8 98 -8 l97 0 1 60 c1 33 2 77 3 98 l1 37 105 0 105 0 0 94 0 95 -105 3 -104
3 -3 -100z"/>
<path d="M6808 7903 c7 -3 16 -2 19 1 4 3 -2 6 -13 5 -11 0 -14 -3 -6 -6z"/>
<path d="M5642 7770 l-3 -110 26 -10 c15 -6 44 -10 65 -10 21 0 50 -4 64 -10
l26 -10 0 63 -1 62 -75 65 c-41 36 -80 66 -87 68 -9 2 -13 -28 -15 -108z"/>
<path d="M2922 7655 c0 -16 2 -22 5 -12 2 9 2 23 0 30 -3 6 -5 -1 -5 -18z"/>
<path d="M2960 7674 c58 -8 150 -8 150 -1 0 4 -39 6 -87 6 -49 -1 -77 -3 -63
-5z"/>
<path d="M3113 7555 c0 -33 2 -45 4 -27 2 18 2 45 0 60 -2 15 -4 0 -4 -33z"/>
<path d="M2910 7039 l0 -410 48 2 c26 1 73 1 105 0 l57 -1 0 -100 0 -100 213
-2 212 -3 3 -552 2 -552 -30 -16 -30 -16 0 -94 0 -94 -80 -7 c-92 -8 -92 -7
-88 -113 2 -55 0 -74 -12 -81 -8 -5 -52 -10 -96 -10 -55 0 -85 -4 -93 -13 -7
-9 -12 -88 -13 -217 l-3 -203 -80 -66 -80 -66 -90 -5 -90 -5 -3 -83 c-2 -45 1
-90 7 -99 7 -14 1 -24 -27 -49 l-37 -32 -3 -709 -4 -709 101 1 100 1 3 -95 3
-96 313 -3 312 -2 0 77 c0 124 -5 119 105 115 l95 -3 0 100 0 101 -102 2 c-58
1 -81 3 -53 6 28 2 100 1 160 -3 l110 -7 -3 -99 -3 -99 60 0 61 0 -2 -302 -3
-303 -88 -5 c-63 -4 -90 -9 -97 -20 -5 -8 -10 -52 -10 -97 l0 -83 -100 0 -100
0 0 -110 0 -109 63 4 c34 3 81 2 105 -1 l42 -6 0 -103 0 -102 -52 -7 c-29 -3
-201 -10 -383 -16 -669 -20 -893 -36 -925 -65 -26 -24 -25 -32 8 -48 50 -26
290 -37 952 -44 360 -4 702 -8 760 -10 452 -12 1322 -13 1730 -3 261 7 770 15
1130 19 594 6 658 8 687 24 71 38 51 60 -77 86 -76 15 -159 20 -410 26 -173 3
-380 11 -460 16 -80 6 -180 13 -224 15 l-79 6 6 65 c4 35 4 135 0 222 l-6 156
-96 0 -96 0 3 -107 3 -108 -173 0 c-95 0 -183 3 -195 6 -23 6 -23 7 -23 215 0
204 0 209 22 220 28 15 154 15 173 -1 7 -6 53 -14 102 -17 l89 -6 -1 110 c-1
60 -5 114 -9 121 -10 16 -186 17 -186 1 0 -8 -56 -9 -192 -5 l-193 5 -5 181
-5 180 348 0 347 0 0 95 0 95 45 0 45 0 0 -95 0 -95 100 0 c116 0 114 2 108
-119 l-3 -71 313 0 312 0 0 95 0 95 100 0 100 0 0 359 c0 198 -3 366 -6 375
-5 13 -24 16 -103 16 -94 0 -97 -1 -97 -22 0 -13 -1 -58 -2 -101 l-2 -78 -97
3 -98 3 -3 92 -3 92 98 4 c54 1 11 4 -94 5 l-193 2 -2 -97 -2 -98 -5 98 -6 98
-100 5 c-55 3 -100 6 -101 7 -1 1 -4 300 -8 665 l-7 662 105 0 106 0 0 95 0
95 -100 0 c-97 0 -100 1 -106 24 -3 14 -3 55 0 93 19 215 19 264 -1 286 -17
21 -18 49 -15 570 l2 547 205 0 205 0 0 68 c0 37 3 84 7 105 l6 39 104 -3 105
-4 -2 205 c0 112 -2 204 -3 205 -1 0 -46 -1 -99 -3 l-98 -3 0 -105 0 -105
-212 1 -213 1 0 -100 0 -101 -102 0 -103 0 0 -99 0 -98 -37 -7 c-21 -3 -152
-6 -290 -6 l-253 0 0 105 0 105 -100 0 -100 0 0 -265 0 -265 -69 0 c-38 0 -83
-3 -100 -6 l-32 -7 3 -96 3 -96 170 -3 c94 -2 185 0 203 3 l32 6 0 158 0 159
188 7 c128 5 196 12 214 21 45 23 97 74 124 120 14 24 30 41 35 38 5 -3 9
-393 9 -940 l0 -934 -95 0 -95 0 0 -198 0 -198 -92 -1 -93 -1 -5 -284 c-3
-155 -6 -241 -8 -190 l-2 92 -90 0 -90 0 0 -95 0 -94 -82 0 c-46 1 -89 0 -95
0 -15 -1 -17 -62 -4 -109 7 -21 6 -30 0 -26 -6 3 -5 -2 1 -12 9 -15 27 -20 87
-22 50 -2 73 0 68 7 -9 16 4 13 21 -4 14 -13 4 -15 -85 -15 -55 0 -102 4 -105
9 -4 5 -9 174 -13 375 l-6 366 -89 0 -88 0 0 -280 0 -280 -90 0 -90 0 0 -195
0 -195 -170 0 c-93 0 -173 1 -177 3 -5 1 -8 43 -9 92 -1 50 -2 136 -3 193 l-1
102 -84 0 -85 0 -4 -42 c-2 -24 -4 102 -5 280 l-2 322 -95 0 -95 0 0 -369 c0
-327 -2 -370 -16 -375 -9 -3 -54 -6 -100 -6 l-84 0 -2 103 c-1 56 0 139 1 185
l3 82 -91 0 -90 0 -4 -92 c-2 -83 -5 -10 -11 377 0 50 -4 91 -8 93 -5 1 -44 2
-88 2 l-79 0 -4 -97 c-2 -76 -3 -64 -5 53 -1 83 -5 218 -8 300 l-7 149 -88 -3
-88 -3 -4 -42 c-3 -40 -4 -39 -5 10 -1 28 -6 55 -12 58 -11 7 -15 1631 -4
1659 5 14 27 16 143 16 76 0 206 -3 289 -7 l152 -6 0 -164 0 -163 189 0 c104
0 196 3 205 6 13 5 16 24 16 100 l0 94 -99 0 c-70 0 -100 4 -104 13 -2 6 -1
41 3 77 l7 65 2 -71 1 -72 90 1 c50 0 95 -4 101 -10 6 -6 7 -111 2 -294 l-8
-284 -110 -6 c-60 -3 -237 -4 -392 -1 l-283 5 0 -361 c0 -198 4 -372 9 -385
15 -38 59 -47 221 -47 174 0 272 9 263 23 -3 6 -1 7 5 3 6 -3 26 1 45 10 41
20 47 47 47 205 0 53 3 104 6 113 5 13 21 16 83 14 58 -1 65 -2 26 -5 -27 -3
-55 -9 -61 -14 -8 -7 -15 -6 -20 2 -5 9 -10 7 -15 -7 -11 -27 -11 -86 0 -80 5
4 5 -9 1 -30 l-8 -35 96 7 c54 4 99 8 102 11 11 10 39 97 33 106 -3 6 -1 7 5
3 6 -3 14 0 19 7 4 7 19 21 33 30 21 15 54 17 235 17 l211 0 57 -34 c30 -19
58 -32 60 -30 2 2 4 -2 5 -8 1 -15 26 -86 33 -92 6 -7 222 -15 412 -15 l167
-1 -2 -92 -2 -93 -3 88 -4 87 -184 0 -185 0 0 -44 c0 -48 32 -101 56 -92 8 3
13 0 11 -7 -1 -7 6 -11 15 -11 10 1 15 -2 12 -7 -9 -15 37 -19 249 -22 175 -2
209 0 217 13 6 9 9 164 7 395 l-2 380 -79 -3 c-62 -3 -77 -1 -74 10 6 18 91
39 98 24 3 -6 15 -12 28 -14 l22 -3 0 345 0 345 -31 -9 c-39 -11 -61 -30 -55
-45 5 -15 -36 -15 -46 0 -4 6 -8 0 -8 -11 0 -12 -7 -25 -16 -28 -14 -5 -14 -9
-3 -23 12 -14 12 -16 -1 -11 -8 2 -15 11 -15 19 0 15 -24 38 -39 39 -6 0 -1
-7 10 -15 17 -13 14 -14 -41 -16 -102 -2 -121 -17 -23 -18 76 -1 89 -4 98 -21
7 -12 9 -117 8 -297 l-3 -278 -105 -3 c-58 -2 -192 0 -298 3 l-193 7 3 99 3
99 -92 0 -93 0 0 -109 c0 -90 -3 -110 -16 -115 -31 -12 -299 -7 -312 6 -9 9
-12 68 -12 204 l0 193 -32 22 c-18 12 -49 38 -69 56 -27 25 -39 31 -44 22 -5
-8 -4 -10 3 -5 8 5 10 1 5 -10 -6 -15 -7 -15 -15 0 -6 11 -6 22 0 29 5 7 6 21
1 32 -20 51 -26 50 230 54 l239 3 16 -24 c10 -12 30 -45 47 -71 18 -29 34 -45
41 -41 6 4 8 3 5 -3 -9 -14 19 -37 34 -27 7 4 9 3 6 -3 -4 -6 0 -14 9 -17 23
-9 29 0 14 19 -7 8 -8 15 -2 15 5 0 10 31 11 72 1 43 6 77 13 85 7 6 49 15 93
18 44 4 83 9 87 11 4 2 6 70 5 151 l-2 147 -155 1 c-85 0 -327 -1 -537 -2
l-382 -3 -4 -87 c-1 -49 -4 -4 -5 100 l-2 187 -101 0 -102 0 5 -100 5 -100
-196 2 -196 3 -3 98 -3 97 -195 0 c-176 0 -195 2 -202 18 -3 9 -7 56 -7 103
l0 86 -213 -4 -213 -4 2 213 c0 117 1 255 0 305 -1 107 9 98 -128 107 l-83 5
0 -410z m857 -562 c-2 -23 -3 -1 -3 48 0 50 1 68 3 42 2 -26 2 -67 0 -90z
m2319 -363 c-4 -9 -9 -15 -11 -12 -3 3 -3 13 1 22 4 9 9 15 11 12 3 -3 3 -13
-1 -22z m-6 -39 c-7 -9 -15 -13 -19 -10 -3 3 1 10 9 15 21 14 24 12 10 -5z
m38 -70 c-2 -15 -6 -21 -11 -16 -6 6 -7 17 -4 25 9 24 17 19 15 -9z m-1297
-42 c13 -16 12 -17 -3 -4 -10 7 -18 15 -18 17 0 8 8 3 21 -13z m1246 -195 c-2
-24 -4 -7 -4 37 0 44 2 63 4 43 2 -21 2 -57 0 -80z m-1167 -44 c-59 -8 -140
-8 -140 -1 0 4 37 6 83 6 45 -1 71 -3 57 -5z m1210 -159 c-7 -9 -15 -13 -19
-10 -3 3 1 10 9 15 21 14 24 12 10 -5z m-1748 -193 c2 -34 0 -62 -4 -62 -5 0
-7 42 -6 93 1 94 5 82 10 -31z m1465 66 c-3 -7 -5 -2 -5 12 0 14 2 19 5 13 2
-7 2 -19 0 -25z m-119 -121 l47 -3 -52 -2 -53 -2 2 53 2 52 3 -47 4 -47 47 -4z
m122 3 c0 -5 -12 -10 -27 -9 l-28 1 25 8 c14 4 26 8 28 9 1 1 2 -3 2 -9z
m-1297 -7 c-7 -2 -19 -2 -25 0 -7 3 -2 5 12 5 14 0 19 -2 13 -5z m-183 -102
l0 -88 -81 -6 c-115 -9 -119 -6 -119 98 l0 85 100 0 100 0 0 -89z m1690 -1 l0
-90 -100 0 -100 0 0 90 0 90 100 0 100 0 0 -90z m-645 47 c39 -22 40 -24 43
-82 2 -33 7 -64 11 -68 5 -5 39 -12 77 -17 l69 -9 -73 4 c-39 2 -77 7 -82 10
-6 3 -10 33 -10 65 0 57 -1 60 -37 85 l-38 25 -285 0 c-209 0 -289 -3 -298
-12 -7 -7 -12 -43 -12 -89 0 -72 -10 -103 -25 -79 -3 5 -1 10 4 10 7 0 11 30
11 78 0 47 5 83 12 90 9 9 90 12 303 12 283 0 291 -1 330 -23z m243 -247 c2
-41 1 -72 -2 -69 -3 2 -6 33 -8 68 -2 42 -8 66 -18 72 -12 8 -11 9 5 7 18 -3
20 -12 23 -78z m-1278 -97 c-116 -2 -187 -7 -191 -14 -4 -7 -8 -5 -12 5 -6 14
14 16 191 14 l197 -3 -185 -2z m-1043 -180 c-2 -21 -4 -6 -4 32 0 39 2 55 4
38 2 -18 2 -50 0 -70z m840 15 c-3 -7 -5 -2 -5 12 0 14 2 19 5 13 2 -7 2 -19
0 -25z m1700 -4 c-3 -3 -12 -4 -19 -1 -8 3 -5 6 6 6 11 1 17 -2 13 -5z m61 -1
c-10 -2 -26 -2 -35 0 -10 3 -2 5 17 5 19 0 27 -2 18 -5z m-2598 -293 c0 -5 -2
-10 -4 -10 -3 0 -8 5 -11 10 -3 6 -1 10 4 10 6 0 11 -4 11 -10z m3100 -50 l0
-60 -82 0 c-100 0 -100 8 0 11 l72 2 0 54 c0 29 2 53 5 53 3 0 5 -27 5 -60z
m-2643 -7 c-3 -10 -5 -2 -5 17 0 19 2 27 5 18 2 -10 2 -26 0 -35z m-507 34 c0
-2 -10 -12 -22 -23 l-23 -19 19 23 c18 21 26 27 26 19z m-69 -60 c-6 -8 -9
-17 -6 -20 3 -4 2 -5 -2 -2 -3 3 -13 -1 -22 -7 -9 -7 -5 0 8 15 25 27 43 39
22 14z m583 -12 c3 -8 1 -15 -4 -15 -6 0 -10 7 -10 15 0 8 2 15 4 15 2 0 6 -7
10 -15z m-644 -60 c7 -8 16 -12 21 -9 5 3 8 0 7 -8 -2 -7 3 -12 10 -10 8 1 11
-2 7 -7 -6 -10 97 -130 113 -132 4 0 10 10 14 23 5 21 6 21 7 2 1 -11 -4 -25
-10 -31 -25 -25 219 -317 338 -404 62 -46 84 -77 92 -127 6 -35 8 -37 43 -34
50 5 112 -14 148 -44 l30 -26 0 -321 c0 -177 -4 -328 -9 -335 -5 -8 -23 -12
-47 -10 l-39 3 -3 88 -3 88 -67 -2 -67 -2 4 191 3 192 -416 0 -416 0 0 380 0
380 53 54 c28 29 64 67 78 84 21 25 35 32 62 32 19 0 40 -7 47 -15z m3288
-1017 l2 -268 -45 0 c-29 0 -45 -4 -46 -12 -1 -7 0 -50 1 -96 l2 -83 -54 3
-53 3 0 314 0 313 40 35 c48 43 91 63 125 60 l25 -2 3 -267z m-3610 115 c-16
-2 -40 -2 -55 0 -16 2 -3 4 27 4 30 0 43 -2 28 -4z m1939 -35 c-3 -7 -5 -2 -5
12 0 14 2 19 5 13 2 -7 2 -19 0 -25z m1231 25 c-21 -2 -55 -2 -75 0 -21 2 -4
4 37 4 41 0 58 -2 38 -4z m-531 -160 c-2 -32 -3 -8 -3 52 0 61 1 87 3 58 2
-29 2 -78 0 -110z m-2335 29 c2 -34 0 -62 -4 -62 -5 0 -7 42 -6 93 1 94 5 82
10 -31z m196 26 c-1 -51 -3 -76 -5 -56 -3 26 -8 35 -18 32 -8 -3 -11 -12 -9
-19 6 -14 -43 -14 -67 0 -9 6 -11 4 -6 -7 7 -18 -11 -38 -32 -37 -11 0 -10 3
4 9 17 7 15 9 -11 9 -31 1 -32 2 -28 39 6 61 6 62 22 53 19 -11 92 8 92 24 0
10 -10 11 -42 4 -43 -10 -73 -6 -64 9 3 5 29 8 58 7 29 -1 62 3 72 8 16 8 18
6 13 -7 -4 -10 -3 -15 3 -11 6 3 10 13 10 21 0 8 2 14 5 14 3 0 4 -42 3 -92z
m1439 5 c-3 -10 -5 -4 -5 12 0 17 2 24 5 18 2 -7 2 -21 0 -30z m-1513 -84 c-3
-5 -10 -7 -15 -3 -5 3 -7 10 -3 15 3 5 10 7 15 3 5 -3 7 -10 3 -15z m234 -29
l52 0 0 -85 0 -85 -105 0 -105 0 0 -85 0 -85 -105 0 -105 0 0 177 0 176 158
-6 c86 -4 181 -7 210 -7z m2572 -165 l0 -175 -200 0 -200 0 0 80 0 80 48 0
c65 0 119 17 137 43 9 14 15 44 15 84 l0 63 100 0 100 0 0 -175z m1010 128 c0
-27 -3 -105 -7 -175 l-6 -128 -99 0 -98 0 0 85 0 85 -105 0 -105 0 0 85 0 84
103 4 c56 1 150 4 210 5 l107 2 0 -47z m-2502 -215 l3 -88 -206 0 -205 0 0 90
0 90 203 -2 202 -3 3 -87z m-8 -470 l0 -183 -102 5 -103 5 -3 178 -2 177 105
0 105 0 0 -182z m718 -100 l3 -98 88 0 88 0 7 -52 c3 -29 6 -131 6 -225 l0
-173 -79 0 c-116 0 -111 5 -111 -111 l0 -99 90 0 90 0 0 -92 0 -93 -105 3
c-58 2 -105 7 -105 13 0 5 20 7 45 4 24 -2 47 0 50 5 3 6 -2 10 -12 11 -48 2
-120 -1 -142 -5 -40 -9 -39 -18 2 -13 20 3 40 1 42 -4 4 -6 -394 -18 -472 -14
-1 0 -3 43 -5 95 l-3 95 103 3 102 3 0 94 0 95 -60 43 c-32 23 -77 54 -99 69
l-39 26 -7 124 c-4 67 -5 141 -3 163 l3 40 93 3 92 3 0 95 0 94 168 -2 167 -3
3 -97z m769 -230 c-2 -24 -4 -5 -4 42 0 47 2 66 4 43 2 -24 2 -62 0 -85z
m-1554 -65 c-24 -2 -62 -2 -85 0 -24 2 -5 4 42 4 47 0 66 -2 43 -4z m-134 -15
c1 -7 4 -56 7 -108 4 -52 10 -97 14 -100 4 -3 9 -54 11 -115 l4 -110 -110 3
c-60 2 -155 4 -210 5 l-100 2 0 205 0 205 130 7 c72 4 141 9 155 11 57 9 97 7
99 -5z m199 -110 c-2 -125 -5 -110 -10 40 -2 45 0 82 5 82 4 0 6 -55 5 -122z
m1736 -147 c-3 -16 0 -32 6 -36 6 -3 8 -11 4 -16 -3 -6 4 -5 15 3 18 11 23 11
31 -2 8 -12 10 -11 10 6 0 13 -8 24 -20 27 -14 4 -20 0 -20 -11 0 -14 -2 -14
-9 -3 -5 7 -6 21 -4 31 5 17 7 17 39 -2 30 -18 34 -25 34 -63 0 -45 -11 -54
-70 -55 -20 0 -22 -2 -10 -10 12 -8 10 -10 -10 -12 -14 -1 7 -4 45 -8 l70 -6
-72 -2 -73 -2 1 58 c1 47 3 52 9 27 6 -24 8 -18 9 31 1 52 6 74 17 74 1 0 0
-13 -2 -29z"/>
<path d="M3236 3293 c5 -5 12 -12 16 -18 4 -6 8 -2 8 8 0 9 -7 17 -17 17 -9 0
-12 -3 -7 -7z"/>
<path d="M3190 3280 c-23 -7 -23 -8 -3 -9 12 -1 25 4 28 9 3 6 5 10 3 9 -2 -1
-14 -5 -28 -9z"/>
<path d="M3120 2915 l0 -75 79 0 c44 0 82 4 85 8 2 4 -27 6 -66 4 -38 -3 -74
0 -78 4 -5 5 14 8 43 7 57 -2 139 7 120 14 -7 3 -13 17 -12 31 0 24 1 25 9 7
6 -15 9 -8 9 28 l1 47 -95 0 -95 0 0 -75z"/>
<path d="M6948 2993 l-88 -4 0 -74 c0 -71 1 -75 23 -74 20 0 21 1 2 8 -16 7
-14 9 14 14 61 13 121 8 121 -8 0 -8 5 -15 10 -15 6 0 10 33 10 80 0 44 -1 79
-2 78 -2 -1 -42 -4 -90 -5z"/>
<path d="M6968 2843 c6 -2 18 -2 25 0 6 3 1 5 -13 5 -14 0 -19 -2 -12 -5z"/>
<path d="M4870 1492 c92 -2 107 -5 118 -22 10 -16 10 -20 -1 -20 -7 0 -18 5
-25 12 -9 9 -12 9 -12 0 0 -7 5 -12 11 -12 5 0 7 -4 4 -10 -3 -6 5 -10 19 -10
24 0 28 12 13 37 -5 9 -3 11 6 7 25 -9 116 -10 110 -1 -7 12 98 3 124 -11 18
-10 22 -10 17 1 -3 8 2 14 10 14 8 0 12 -6 9 -12 -3 -9 9 -13 37 -13 39 -1
104 16 70 18 -13 0 -13 1 0 10 19 12 50 11 -310 13 -168 1 -258 1 -200 -1z"/>
<path d="M4890 1460 c-9 -6 -10 -10 -3 -10 6 0 15 5 18 10 8 12 4 12 -15 0z"/>
<path d="M5027 1453 c-16 -15 18 -33 62 -33 l46 1 -50 19 c-59 23 -50 21 -58
13z"/>
<path d="M6615 7248 c-11 -7 -58 -15 -105 -18 l-85 -5 -3 -97 -3 -98 106 0
105 0 0 109 c0 96 2 110 18 114 12 3 13 5 2 6 -8 0 -24 -5 -35 -11z"/>
<path d="M5267 7233 c-3 -5 -8 -47 -12 -94 -5 -64 -3 -89 6 -94 7 -5 16 0 22
11 6 10 43 53 84 95 40 41 73 78 73 82 0 10 -168 9 -173 0z"/>
<path d="M6268 7033 c29 -2 74 -2 100 0 26 2 2 3 -53 3 -55 0 -76 -1 -47 -3z"/>
<path d="M3968 5876 l3 -345 47 6 c26 3 64 1 85 -5 l37 -10 0 282 c0 206 3
285 12 294 7 7 47 13 98 14 l85 2 -90 6 c-49 3 -79 7 -65 9 22 2 23 3 6 10
-11 4 -39 7 -62 7 -32 -1 -44 3 -47 16 -3 10 -12 15 -23 13 -11 -2 -22 -4 -26
-4 -5 -1 -7 -5 -5 -10 2 -9 -3 -11 -23 -11 -5 0 -12 16 -16 35 -3 19 -9 35
-13 35 -3 0 -5 -155 -3 -344z m169 241 c8 10 11 12 7 4 -4 -8 -11 -28 -15 -45
-7 -31 -7 -31 -8 -3 -1 15 -5 27 -11 27 -5 0 -6 8 -2 18 6 16 7 16 10 -1 4
-18 4 -18 19 0z"/>
<path d="M4110 6196 c0 -2 7 -7 16 -10 8 -3 12 -2 9 4 -6 10 -25 14 -25 6z"/>
<path d="M6053 6183 c0 -9 4 -10 10 -4 7 7 17 6 30 0 15 -8 18 -8 15 2 -6 18
-55 20 -55 2z"/>
<path d="M6031 6153 c-1 -17 16 -25 25 -12 4 7 3 9 -4 5 -5 -3 -13 0 -15 6 -4
9 -6 10 -6 1z"/>
<path d="M6857 4703 c-28 -28 20 -88 137 -171 l46 -33 0 105 0 106 -88 0 c-49
0 -92 -3 -95 -7z"/>
<path d="M7441 3614 c0 -11 3 -14 6 -6 3 7 2 16 -1 19 -3 4 -6 -2 -5 -13z"/>
<path d="M4423 3563 c-7 -2 -13 -12 -14 -21 0 -14 -2 -13 -9 3 -6 13 -9 15 -9
5 -1 -13 -2 -13 -11 0 -7 11 -10 0 -10 -39 0 -46 2 -52 15 -41 8 7 24 10 35 7
11 -3 27 1 35 10 20 19 19 69 -1 77 -9 3 -16 6 -17 5 -1 0 -8 -3 -14 -6z"/>
<path d="M4532 3550 c0 -14 2 -19 5 -12 2 6 2 18 0 25 -3 6 -5 1 -5 -13z"/>
<path d="M4531 3494 c0 -11 3 -14 6 -6 3 7 2 16 -1 19 -3 4 -6 -2 -5 -13z"/>
<path d="M4390 3465 c-8 -45 -8 -47 2 -37 5 5 8 18 5 28 -3 11 -6 15 -7 9z"/>
</g>
</svg>
